# xmcd
#
# Track frame offsets: 
#        150
#        21482
#        38647
#
# Disc length: 827 seconds
#
# Revision: 4
# Processed by: cddbd v1.5PL3 Copyright (c) Steve Scherf et al.
# Submitted via: ExactAudioCopy v0.90b4
#
DISCID=1d033903
DTITLE=Luca Turilli - The Ancient Forest Of Elves
DYEAR=1999
DGENRE=
TTITLE0=The Ancient Forest Of Elves
TTITLE1=Warrior's Pride (Duet Version)
TTITLE2=Knight Of Immortal Fire
EXTD=
EXTT0=From forthcoming album "King of the nordic twilight"
EXTT1=different version than on the album
EXTT2=
PLAYORDER=
